<svg width="19" height="13" viewBox="0 0 19 13" fill="none" xmlns="http://www.w3.org/2000/svg">
<path d="M17.3114 6.29907C17.9585 3.93407 16.8261 1.3274 14.3815 0.377948C11.8829 -0.606029 9.07881 0.395211 7.82055 2.63937C5.48378 2.13875 3.32677 3.53703 2.84144 5.76393C1.31356 6.28181 0.217073 7.43841 0.0193465 9.02658C-0.17838 10.7183 1.16975 12.1166 2.67966 12.7208C3.50652 13.0488 4.42325 12.997 5.30403 12.997C6.52634 12.997 7.76662 12.997 8.98893 12.997C10.9123 12.997 12.8356 12.997 14.7589 12.997C16.4306 12.997 18.2281 12.0476 18.7854 10.4594C19.3785 8.83669 18.6955 7.26578 17.3114 6.29907ZM17.2934 11.1326C16.5565 11.9095 15.4959 12.1339 14.4534 12.1339C12.6918 12.1339 10.9302 12.1339 9.16868 12.1339C7.5689 12.1339 5.96911 12.1339 4.3873 12.1339C3.11107 12.1339 1.94268 11.5987 1.2776 10.5284C0.199098 8.83669 1.65508 7.00684 3.38069 6.52349C3.59639 6.4717 3.68627 6.29907 3.70425 6.10918C3.97387 4.1067 6.00506 2.98462 7.96435 3.57156C8.1441 3.62334 8.39575 3.53703 8.46765 3.38167C9.42033 1.43098 11.5594 0.446999 13.7164 1.06846C16.0711 1.70718 17.0777 4.2448 16.3587 6.36812C16.2868 6.55801 16.3587 6.69611 16.4846 6.79969C16.4846 6.79969 16.5025 6.79969 16.5025 6.81695C16.5025 6.81695 16.5025 6.81695 16.5205 6.83422C16.5385 6.85148 16.5565 6.86874 16.5744 6.86874C18.1922 7.81819 18.6416 9.73436 17.2934 11.1326Z" fill="white"/>
</svg>
