<svg width="15" height="15" viewBox="0 0 15 15" fill="none" xmlns="http://www.w3.org/2000/svg">
<path d="M7.89387 12.2786C5.24113 12.2786 3.08679 10.108 3.08679 7.43521C3.08679 4.76242 5.24113 2.5918 7.89387 2.5918C10.5466 2.5918 12.7009 4.76242 12.7009 7.43521C12.6849 10.108 10.5305 12.2786 7.89387 12.2786ZM7.89387 3.53132C5.7556 3.53132 4.01927 5.28078 4.01927 7.43521C4.01927 9.58964 5.7556 11.3391 7.89387 11.3391C10.0321 11.3391 11.7685 9.58964 11.7685 7.43521C11.7524 5.28078 10.0161 3.53132 7.89387 3.53132Z" fill="white"/>
<path d="M9.66237 5.49136L5.32153 7.75918L6.94533 8.50432L7.84565 10.0594L9.66237 5.49136Z" fill="white"/>
<path d="M8.16722 1.89525L7.58844 0.793737V1.89525C7.58844 1.97624 7.49198 2.00864 7.41159 2.00864C7.31513 2.00864 7.23474 1.97624 7.23474 1.89525V0.113391C7.23474 0.0323974 7.31513 0 7.41159 0C7.54021 0 7.58844 0.0323974 7.66882 0.194384L8.19937 1.2149V0.113391C8.19937 0.0323974 8.27976 0 8.37622 0C8.45661 0 8.55307 0.0323974 8.55307 0.113391V1.89525C8.55307 1.97624 8.45661 2.00864 8.37622 2.00864C8.27976 2.00864 8.21545 1.97624 8.16722 1.89525Z" fill="white"/>
<path d="M8.0547 14.433C8.0547 14.0281 7.18654 14.1415 7.18654 13.4935C7.18654 13.0886 7.54023 12.9428 7.8457 12.9428C8.00647 12.9428 8.36017 12.9752 8.36017 13.1695C8.36017 13.2343 8.31194 13.3639 8.21548 13.3639C8.13509 13.3639 8.07078 13.2667 7.8457 13.2667C7.65277 13.2667 7.54023 13.3477 7.54023 13.4773C7.54023 13.8175 8.4084 13.7041 8.4084 14.4006C8.4084 14.7894 8.13509 15 7.76531 15C7.41162 15 7.13831 14.8218 7.13831 14.6598C7.13831 14.5788 7.20261 14.4654 7.29908 14.4654C7.41162 14.4654 7.47593 14.676 7.76531 14.676C7.91001 14.676 8.0547 14.595 8.0547 14.433Z" fill="white"/>
<path d="M1.80064 8.35854C1.76849 8.43953 1.67203 8.47193 1.57556 8.47193C1.4791 8.47193 1.36656 8.43953 1.35048 8.35854L1.17363 7.6134L0.996785 8.35854C0.980707 8.43953 0.868167 8.47193 0.771704 8.47193C0.675241 8.47193 0.562701 8.43953 0.546624 8.35854L0 6.64147C0 6.62527 0 6.62527 0 6.60908C0 6.52808 0.128617 6.46329 0.22508 6.46329C0.273312 6.46329 0.321543 6.47949 0.337621 6.52808L0.771704 8.01836L0.996785 7.06264C1.01286 6.99784 1.09325 6.96545 1.17363 6.96545C1.25402 6.96545 1.33441 6.99784 1.35048 7.06264L1.57556 8.01836L2.00965 6.52808C2.02572 6.47949 2.07395 6.46329 2.12219 6.46329C2.21865 6.46329 2.34727 6.52808 2.34727 6.60908C2.34727 6.62527 2.34727 6.64147 2.34727 6.64147L1.80064 8.35854Z" fill="white"/>
<path d="M14.1158 7.32181H14.5338C14.5981 7.32181 14.6463 7.38661 14.6463 7.4676C14.6463 7.5324 14.6142 7.59719 14.5338 7.59719H14.1158V8.14795H14.8875C14.9518 8.14795 15 8.22894 15 8.30993C15 8.39093 14.9679 8.45572 14.8875 8.45572H13.9229C13.8425 8.45572 13.7621 8.42332 13.7621 8.34233V6.56047C13.7621 6.47948 13.8425 6.44708 13.9229 6.44708H14.8875C14.9679 6.44708 15 6.52808 15 6.59287C15 6.67386 14.9518 6.75486 14.8875 6.75486H14.1158V7.32181Z" fill="white"/>
</svg>
