<svg width="11" height="11" viewBox="0 0 11 11" fill="none" xmlns="http://www.w3.org/2000/svg">
<g clip-path="url(#clip0_1_153)">
<path d="M-3.8147e-06 5.50649V5.49351C-3.8147e-06 5.41558 0.026001 5.35065 0.0780106 5.28571C0.104015 5.24675 0.143023 5.20779 0.18203 5.19481C0.559098 4.92208 0.936167 4.66234 1.31324 4.38961C1.1182 3.94805 0.923164 3.51948 0.715127 3.07792C0.611108 2.84416 0.741131 2.61039 1.00118 2.58442C1.48227 2.53247 1.95035 2.49351 2.43144 2.44156C2.48345 1.96104 2.52245 1.48052 2.57446 1.01299C2.60047 0.753247 2.82151 0.623377 3.06855 0.727273C3.51063 0.922078 3.93971 1.11688 4.38179 1.32468C4.66784 0.935065 4.94089 0.545455 5.22695 0.155844C5.36997 -0.051948 5.64302 -0.051948 5.78605 0.155844C6.0721 0.545455 6.34515 0.935065 6.6312 1.32468C7.07328 1.12987 7.50236 0.935065 7.94444 0.727273C8.17848 0.623377 8.41253 0.753247 8.43853 1.01299C8.49054 1.49351 8.52955 1.97403 8.58156 2.44156C9.06264 2.49351 9.54373 2.53247 10.0118 2.58442C10.2719 2.61039 10.4019 2.83117 10.2979 3.07792C10.1028 3.51948 9.9078 3.94805 9.69976 4.38961C10.0898 4.67532 10.4799 4.94805 10.87 5.23377C11.078 5.37662 11.078 5.64935 10.87 5.79221C10.4799 6.07792 10.0898 6.35065 9.69976 6.63636C9.8948 7.07792 10.0898 7.50649 10.2979 7.94805C10.4019 8.18182 10.2719 8.41558 10.0118 8.44156C9.53073 8.49351 9.04964 8.53247 8.58156 8.58442C8.52955 9.06493 8.49054 9.54545 8.43853 10.013C8.41253 10.2727 8.19149 10.4026 7.94444 10.2987C7.50236 10.1039 7.07328 9.90909 6.6312 9.7013C6.34515 10.0909 6.0721 10.4805 5.78605 10.8701C5.64302 11.0779 5.36997 11.0779 5.22695 10.8701C4.94089 10.4805 4.66784 10.0909 4.38179 9.7013C3.93971 9.8961 3.51063 10.0909 3.06855 10.2987C2.83451 10.4026 2.60047 10.2727 2.57446 10.013C2.52245 9.53247 2.48345 9.05195 2.43144 8.58442C1.95035 8.53247 1.46926 8.49351 1.00118 8.44156C0.741131 8.41558 0.611108 8.19481 0.715127 7.94805C0.910162 7.50649 1.1052 7.07792 1.31324 6.63636C0.936167 6.36364 0.559098 6.1039 0.18203 5.83117C0.143023 5.80519 0.104015 5.77922 0.0780106 5.74026C0.026001 5.67532 -3.8147e-06 5.61039 -3.8147e-06 5.53247C-3.8147e-06 5.50649 -3.8147e-06 5.50649 -3.8147e-06 5.50649ZM4.75886 9.11688C5.00591 9.45455 5.25295 9.79221 5.48699 10.1429C5.73404 9.80519 5.98108 9.46753 6.21513 9.11688C6.33215 8.96104 6.48818 8.92208 6.65721 9C7.03427 9.16883 7.41134 9.35065 7.80141 9.51948C7.84042 9.1039 7.87943 8.68831 7.91844 8.27273C7.93144 8.07792 8.04846 7.96104 8.24349 7.94805C8.65957 7.90909 9.07565 7.87013 9.49172 7.83117C9.32269 7.45455 9.14066 7.07792 8.97163 6.68831C8.89361 6.51948 8.93262 6.35065 9.08865 6.24675C9.42671 6 9.76477 5.75325 10.1028 5.51948C9.76477 5.27273 9.42671 5.02597 9.08865 4.79221C8.93262 4.67532 8.89361 4.51948 8.97163 4.35065C9.14066 3.97403 9.32269 3.5974 9.49172 3.20779C9.07565 3.16883 8.65957 3.12987 8.24349 3.09091C8.04846 3.07792 7.93144 2.96104 7.91844 2.76623C7.87943 2.35065 7.84042 1.93506 7.80141 1.51948C7.42435 1.68831 7.04728 1.85714 6.65721 2.03896C6.48818 2.11688 6.31915 2.07792 6.21513 1.92208C5.96808 1.58442 5.72104 1.24675 5.48699 0.909091C5.23995 1.24675 4.9929 1.58442 4.75886 1.92208C4.64184 2.07792 4.48581 2.11688 4.31678 2.03896C3.93971 1.87013 3.54964 1.7013 3.17257 1.51948C3.13357 1.93506 3.09456 2.35065 3.05555 2.76623C3.04255 2.96104 2.92553 3.07792 2.73049 3.09091C2.31442 3.12987 1.89834 3.16883 1.48227 3.20779C1.6513 3.58442 1.82033 3.96104 2.00236 4.35065C2.08037 4.51948 2.04137 4.68831 1.88534 4.79221C1.54728 5.03896 1.20922 5.28571 0.871155 5.51948C1.20922 5.76623 1.54728 6.01299 1.88534 6.24675C2.04137 6.36364 2.08037 6.51948 2.00236 6.68831C1.83333 7.06494 1.6643 7.44156 1.48227 7.83117C1.89834 7.87013 2.31442 7.90909 2.73049 7.94805C2.92553 7.96104 3.04255 8.07792 3.05555 8.27273C3.09456 8.68831 3.13357 9.1039 3.17257 9.51948C3.54964 9.35065 3.92671 9.16883 4.31678 9C4.48581 8.92208 4.64184 8.96104 4.75886 9.11688Z" fill="#F9E073"/>
</g>
<defs>
<clipPath id="clip0_1_153">
<rect width="11" height="11" fill="white" transform="matrix(-1 0 0 1 11 0)"/>
</clipPath>
</defs>
</svg>
