<svg xmlns="http://www.w3.org/2000/svg" viewBox="0 0 64 64"><path fill="#ef5350" d="M17.564,37.251a1,1,0,0,1-1-1v-8.5a1,1,0,0,1,1-1h4.6a1,1,0,0,1,0,2h-3.6v7.5A1,1,0,0,1,17.564,37.251Z"/><path fill="#ef5350" d="M20.851 33H17.564a1 1 0 0 1 0-2h3.287a1 1 0 0 1 0 2zM30.252 37.251a.993.993 0 0 1-.679-.266l-2.917-2.7v1.963a1 1 0 0 1-2 0v-8.5a1 1 0 0 1 1-1h2.47A3.126 3.126 0 0 1 28.209 33l2.722 2.519a1 1 0 0 1-.679 1.733zM26.656 31h1.47a1.126 1.126 0 1 0 0-2.251h-1.47zM38.344 37.251h-4.6a1 1 0 0 1-1-1v-8.5a1 1 0 0 1 1-1h4.6a1 1 0 0 1 0 2h-3.6v6.5h3.6a1 1 0 0 1 0 2z"/><path fill="#ef5350" d="M36.976 33H33.748a1 1 0 1 1 0-2h3.228a1 1 0 0 1 0 2zM46.436 37.251h-4.6a1 1 0 0 1-1-1v-8.5a1 1 0 0 1 1-1h4.6a1 1 0 0 1 0 2h-3.6v6.5h3.6a1 1 0 0 1 0 2z"/><path fill="#ef5350" d="M45.067,33H41.84a1,1,0,0,1,0-2h3.227a1,1,0,1,1,0,2Z"/><path fill="#ef5350" d="M32,60.246a1,1,0,0,1-.773-.366l-5.048-6.163-7.453,2.816a1,1,0,0,1-1.341-.775l-1.28-7.864L8.24,46.614a1,1,0,0,1-.774-1.341l2.817-7.452L4.12,32.773a1,1,0,0,1,0-1.546l6.163-5.048L7.467,18.726a1,1,0,0,1,.774-1.34l7.865-1.281,1.28-7.864a1,1,0,0,1,1.341-.775l7.452,2.817L31.227,4.12a1.033,1.033,0,0,1,1.546,0l5.048,6.163,7.453-2.816a1,1,0,1,1,.707,1.871l-8.125,3.07a1,1,0,0,1-1.127-.3L32,6.332l-4.729,5.774a1,1,0,0,1-1.127.3L19.164,9.77l-1.2,7.367a1,1,0,0,1-.826.826l-7.368,1.2,2.637,6.981a1,1,0,0,1-.3,1.127L6.332,32l5.774,4.729a1,1,0,0,1,.3,1.127L9.77,44.836l7.368,1.2a1,1,0,0,1,.826.826l1.2,7.368,6.981-2.638a1,1,0,0,1,1.127.3L32,57.668l4.729-5.774a1,1,0,1,1,1.547,1.267l-5.5,6.719A1,1,0,0,1,32,60.246Z"/><path fill="#ef5350" d="M45.627,56.6a1.011,1.011,0,0,1-.354-.064l-8.124-3.071a1,1,0,0,1,.707-1.871l6.98,2.638,1.2-7.367a1,1,0,0,1,.827-.826l7.367-1.2-2.637-6.981a1,1,0,0,1,.3-1.127L57.668,32l-5.774-4.729a1,1,0,0,1-.3-1.127l2.638-6.98-7.368-1.2a1,1,0,1,1,.323-1.974l8.575,1.4a1,1,0,0,1,.774,1.341l-2.817,7.452,6.163,5.048a1,1,0,0,1,0,1.546l-6.163,5.048,2.816,7.453a1,1,0,0,1-.775,1.341L47.894,47.9l-1.28,7.864a1,1,0,0,1-.987.839Z"/></svg>