<svg width="25" height="25" viewBox="0 0 25 25" fill="none" xmlns="http://www.w3.org/2000/svg">
<path d="M19.4333 11.9024H5.43335C4.32878 11.9024 3.43335 12.7978 3.43335 13.9024V20.9024C3.43335 22.007 4.32878 22.9024 5.43335 22.9024H19.4333C20.5379 22.9024 21.4333 22.007 21.4333 20.9024V13.9024C21.4333 12.7978 20.5379 11.9024 19.4333 11.9024Z" stroke="white" stroke-width="2" stroke-linecap="round" stroke-linejoin="round"/>
<path d="M7.43335 11.9024V7.9024C7.43335 6.57632 7.96013 5.30455 8.89782 4.36687C9.8355 3.42919 11.1073 2.9024 12.4333 2.9024C13.7594 2.9024 15.0312 3.42919 15.9689 4.36687C16.9066 5.30455 17.4333 6.57632 17.4333 7.9024V11.9024" stroke="white" stroke-width="2" stroke-linecap="round" stroke-linejoin="round"/>
</svg>
