<svg xmlns="http://www.w3.org/2000/svg" width="24" height="24" fill="none" viewBox="0 0 24 24"><path fill="#000" fill-rule="evenodd" d="M1 5C1 2.79086 2.79086 1 5 1H19C21.2091 1 23 2.79086 23 5V19C23 21.2091 21.2091 23 19 23H5C2.79086 23 1 21.2091 1 19V5ZM5 3C3.89543 3 3 3.89543 3 5V19C3 20.1046 3.89543 21 5 21H19C20.1046 21 21 20.1046 21 19V5C21 3.89543 20.1046 3 19 3H5Z" clip-rule="evenodd"/><path fill="#000" fill-rule="evenodd" d="M1 9C1 8.44772 1.44772 8 2 8H22C22.5523 8 23 8.44772 23 9 23 9.55228 22.5523 10 22 10H2C1.44772 10 1 9.55228 1 9zM6.5 5C6.22386 5 6 5.22386 6 5.5 6 5.77614 6.22386 6 6.5 6 6.77614 6 7 5.77614 7 5.5 7 5.22386 6.77614 5 6.5 5zM4 5.5C4 4.11929 5.11929 3 6.5 3 7.88071 3 9 4.11929 9 5.5 9 6.88071 7.88071 8 6.5 8 5.11929 8 4 6.88071 4 5.5zM19 6.5H11V4.5H19V6.5z" clip-rule="evenodd"/></svg>