<svg xmlns="http://www.w3.org/2000/svg" data-name="Layer 1" viewBox="0 0 512 512"><path fill="#272a33" d="M322.127,270.28535a7.50006,7.50006,0,0,0-7.5-7.5H197.44336a7.5,7.5,0,1,0,0,15H314.627A7.50006,7.50006,0,0,0,322.127,270.28535ZM204.4292,246.675H307.64111a17.79963,17.79963,0,0,0,16.56153-11.15625l25.19867-62.15759a22.99805,22.99805,0,1,0-14.03882-13.90888L290.417,183.31709l-23.45715-46.91345a25.49726,25.49726,0,1,0-21.67365-.3515l-23.63287,47.265-45.00507-23.89642a23.01541,23.01541,0,1,0-13.98767,13.91949l25.20758,62.17859A17.797,17.797,0,0,0,204.4292,246.675ZM357,143.65693a8,8,0,1,1-8,8A8.00917,8.00917,0,0,1,357,143.65693Zm-202,16a8,8,0,1,1,8-8A8.00916,8.00916,0,0,1,155,159.65693Zm101.5-57a10.5,10.5,0,1,1-10.5,10.5A10.51211,10.51211,0,0,1,256.5,102.65693Zm-75.46777,76.07471,35.68213,18.94629a12.68486,12.68486,0,0,0,17.29443-5.53076l22.02637-44.05225L278.062,192.14814a12.68518,12.68518,0,0,0,17.29395,5.52979l35.68213-18.94629-20.73633,51.15088a2.85985,2.85985,0,0,1-2.66065,1.79248H204.4292a2.85881,2.85881,0,0,1-2.65967-1.792ZM445.31641,441.90693l-77.731-134.63452c2.21912-.667,4.52612-1.30151,6.874-1.94556,12.26563-3.36523,24.94873-6.84472,32.44727-17.14843,7.42236-10.19825,6.83691-23.26953,6.27148-35.91016-.373-8.33643-.72558-16.21045,1.2417-22.26953,1.835-5.65137,6.60987-11.5874,11.665-17.87207,7.707-9.582,16.44238-20.44238,16.44238-33.60254S433.792,154.50361,426.085,144.92158c-5.05517-6.28467-9.83008-12.22119-11.665-17.87207-1.96728-6.05957-1.61474-13.93359-1.2417-22.27.56543-12.64062,1.15039-25.71142-6.27148-35.90967-7.49854-10.30322-20.18115-13.78271-32.44629-17.14746-7.98486-2.19092-15.52637-4.25976-20.5752-7.93408-4.94482-3.59912-9.18359-10.0708-13.67138-16.92334-6.68994-10.21484-14.27295-21.793-26.563-25.7832-11.78662-3.82715-23.917.72461-35.64795,5.12646C270.06934,9.18525,262.57617,11.99678,256,11.99678S241.93018,9.18525,233.99707,6.2082c-11.731-4.40185-23.86133-8.95361-35.64844-5.126-12.29,3.99023-19.87256,15.56787-26.5625,25.78271-4.48779,6.85254-8.72656,13.32422-13.67187,16.92334-5.04834,3.67432-12.58985,5.74316-20.57471,7.93408-12.26514,3.36475-24.94775,6.84424-32.44629,17.14746C97.6709,79.06807,98.25635,92.13935,98.82178,104.78c.373,8.33643.72558,16.21094-1.2417,22.26953-1.835,5.65137-6.60987,11.58789-11.665,17.87256-7.707,9.58154-16.44238,20.44189-16.44238,33.60205,0,13.16064,8.73535,24.021,16.44238,33.603,5.05517,6.28467,9.83008,12.22119,11.665,17.87256,1.96728,6.05859,1.61474,13.93261,1.2417,22.26953-.56543,12.64013-1.15039,25.71093,6.27148,35.90869,7.49854,10.3042,20.18164,13.78369,32.44727,17.14892,2.34778.644,4.65484,1.27857,6.8739,1.94556l-77.73132,134.635a12.50018,12.50018,0,0,0,10.42871,18.74316l51.13476,1.626,26.97559,43.4707a12.39341,12.39341,0,0,0,10.61426,5.90967c.06836,0,.1372-.00049.20556-.00146a12.39633,12.39633,0,0,0,10.62549-6.2461l79.365-137.35241,79.29858,137.34948a12.39712,12.39712,0,0,0,10.627,6.249c.06836.001.1372.00146.20556.00146a12.39432,12.39432,0,0,0,10.61377-5.90918l26.97608-43.47119,51.13476-1.626a12.5,12.5,0,0,0,10.42823-18.74365ZM165.76709,494.29219l-25.48145-41.0625a12.47314,12.47314,0,0,0-10.22363-5.90284l-48.30029-1.53613,76.46582-132.4436c4.89648,3.61523,9.10535,10.03637,13.55859,16.83569,6.68994,10.21533,14.27295,21.79346,26.563,25.78369a30.13745,30.13745,0,0,0,9.38574,1.436c8.77246,0,17.62549-3.32178,26.26221-6.5625,3.44177-1.29151,6.80029-2.551,10.03741-3.56421l3.33967,5.78442ZM256,330.05146c-9.29785,0-18.43555,3.42871-27.27246,6.74463-9.74561,3.65674-18.94971,7.11182-25.74609,4.90381-7.26758-2.35986-12.79493-10.7998-18.64747-19.73535-5.0288-7.67871-10.22949-15.61914-17.39306-20.83252-7.26367-5.28662-16.5-7.82031-25.43164-10.271-10.22412-2.80468-19.88135-5.4541-24.28809-11.50927-4.33008-5.94971-3.88525-15.88916-3.41406-26.41211.416-9.30518.84668-18.92725-1.96045-27.57276-2.686-8.27246-8.56152-15.57715-14.24316-22.64111-6.75293-8.39551-13.13086-16.3252-13.13086-24.20166s6.37793-15.80566,13.13037-24.20068c5.68213-7.064,11.55761-14.36866,14.24365-22.64161,2.80713-8.645,2.37646-18.26709,1.96-27.57226-.4707-10.52344-.91553-20.46289,3.41455-26.41309,4.40674-6.05468,14.06348-8.7041,24.28711-11.50879,8.93213-2.45068,18.16846-4.98486,25.43262-10.27148,7.16406-5.21338,12.36426-13.15381,17.39355-20.833,5.85157-8.93506,11.37891-17.37451,18.64649-19.73437,6.79834-2.20752,16.00146,1.24707,25.74658,4.90332,8.83691,3.31592,17.97461,6.74463,27.27246,6.74463s18.43555-3.42871,27.27246-6.74463c9.74609-3.65674,18.95264-7.1084,25.74609-4.90381,7.26709,2.35986,12.79493,10.7998,18.647,19.73535,5.02929,7.67871,10.23,15.61914,17.39355,20.83252,7.26416,5.28662,16.50049,7.8208,25.43262,10.27148,10.22363,2.80469,19.88037,5.45411,24.28711,11.50879,4.33008,5.94971,3.88525,15.88965,3.41406,26.4126-.416,9.30518-.84668,18.92676,1.96045,27.57275,2.686,8.27247,8.56152,15.57715,14.24365,22.64112,6.75244,8.39551,13.13037,16.32471,13.13037,24.20117s-6.37793,15.80615-13.13086,24.20117c-5.68164,7.064-11.55712,14.36817-14.24316,22.64112-2.80713,8.6455-2.37646,18.26757-1.96,27.57275.4707,10.523.91553,20.4624-3.41455,26.4126-4.40674,6.05517-14.064,8.70459-24.28809,11.50927-8.93164,2.45069-18.168,4.98438-25.43164,10.271-7.16406,5.21338-12.36426,13.15381-17.39355,20.833-5.85157,8.93554-11.37891,17.375-18.64649,19.73486-6.79638,2.20752-16.00049-1.24707-25.74609-4.90381C274.436,333.48017,265.29785,330.05146,256,330.05146ZM381.9375,447.32685a12.473,12.473,0,0,0-10.22314,5.90284l-25.481,41.061L260.276,345.40718c5.47913.84253,11.46515,3.08337,17.72742,5.43286,11.73047,4.40088,23.86035,8.95215,35.64795,5.12646,12.29-3.99023,19.873-15.56836,26.563-25.7832,4.45282-6.79932,8.66174-13.22119,13.55792-16.8363l76.466,132.44372Z"/></svg>